<svg width="178" height="49" viewBox="0 0 178 49" xmlns="http://www.w3.org/2000/svg"><title>logo</title><g fill="none" fill-rule="evenodd"><path d="M16.448 20.777l.532-.972a59.833 59.833 0 0 0-10.121-.858c-1.303 0-2.597.042-3.879.125l-.01.01.072.03c4.624.007 9.115.584 13.406 1.665z" fill="#D2D2D2"/><path d="M58.7 48.859c-1.227-.743-9.344-5.15-29.266-5.18C7.678 43.712 0 48.966 0 48.966l16.473-29.231c18.049 2.868 33.404 13.86 42.227 29.125zM43.585 21.846L32.165 1.582S31.138 0 29.434 0c-1.754.012-2.715 1.552-2.715 1.552l-8.614 15.285a59.266 59.266 0 0 1 25.48 5.009z" fill="#ED706F"/><path d="M50.368 45.825c5.148 1.246 7.688 2.644 8.332 3.034-8.823-15.265-24.178-26.257-42.227-29.125l-.517.918c14.548 3.46 26.866 12.702 34.412 25.173zM27.252.93C27.706.5 28.444.006 29.434 0c1.704 0 2.73 1.582 2.73 1.582l11.42 20.264A59.104 59.104 0 0 0 38.857 20L30.778 2.996s-1.07-1.93-3.057-2.069a3.452 3.452 0 0 0-.469.002z" fill="#C85B59"/><g><path d="M138.333 15h-5.666l2.833-8.5 2.833 8.5zm.667 2h-7l-2 6h-2l6-18h3l6 18h-2l-2-6zm-30 4h10v2h-12V5h12v2h-10v6h8v2h-8v6zm-9-8H90V5h-2v18h2v-8h10v8h2V5h-2v8zm66 2h6v2h-6v6h-2V5h8v2h-6v8zm-17 0h6v2h-6v6h-2V5h8v2h-6v8zM68 5h16v2H68V5zm87 0a6 6 0 1 1 0 12v-2a4 4 0 1 0 0-8V5zm17 0a6 6 0 0 1 0 12v-2a4 4 0 1 0 0-8V5zM75 7h2v16h-2V7z" fill="#FFF"/><path d="M163.5 43h-.5l-5-6.667V43h-1v-8h1l5 6.667V35h1v8h-.5zM114 40a3 3 0 0 1-6 0h1a2 2 0 1 0 4 0h1zm-43.857-2.827c0 .286.09.524.27.712.18.189.411.329.694.42.283.09.597.169.944.237.347.068.694.145 1.041.232.347.086.662.198.944.333.283.136.514.34.694.612.18.271.27.607.27 1.007 0 .61-.266 1.142-.797 1.595-.53.453-1.248.679-2.152.679-.903 0-1.638-.183-2.203-.549-.565-.366-.848-.862-.848-1.488h1.246c.035.355.195.641.482.86.287.219.713.328 1.278.328.566 0 1.015-.128 1.35-.384.334-.257.5-.557.5-.9 0-.343-.09-.607-.27-.792a1.65 1.65 0 0 0-.693-.413 7.687 7.687 0 0 0-.944-.232 14.71 14.71 0 0 1-1.041-.232 4.955 4.955 0 0 1-.944-.345 1.738 1.738 0 0 1-.694-.622c-.18-.276-.27-.617-.27-1.024 0-.664.268-1.198.803-1.602.535-.403 1.233-.605 2.094-.605.861 0 1.546.175 2.056.526.51.35.803.836.88 1.454h-1.298c-.034-.31-.199-.573-.494-.792-.296-.219-.694-.328-1.195-.328-.501 0-.91.111-1.227.334-.317.222-.476.549-.476.979zm102 0c0 .286.09.524.27.712.18.189.411.329.694.42.283.09.597.169.944.237.347.068.694.145 1.041.232.347.086.662.198.944.333.283.136.514.34.694.612.18.271.27.607.27 1.007 0 .61-.266 1.142-.797 1.595-.53.453-1.248.679-2.152.679-.903 0-1.638-.183-2.203-.549-.565-.366-.848-.862-.848-1.488h1.246c.035.355.195.641.482.86.287.219.713.328 1.278.328.566 0 1.015-.128 1.35-.384.334-.257.5-.557.5-.9 0-.343-.09-.607-.27-.792a1.65 1.65 0 0 0-.693-.413 7.687 7.687 0 0 0-.944-.232 14.71 14.71 0 0 1-1.041-.232 4.955 4.955 0 0 1-.944-.345 1.738 1.738 0 0 1-.694-.622c-.18-.276-.27-.617-.27-1.024 0-.664.268-1.198.803-1.602.535-.403 1.233-.605 2.094-.605.861 0 1.546.175 2.056.526.51.35.803.836.88 1.454h-1.298c-.034-.31-.199-.573-.494-.792-.296-.219-.694-.328-1.195-.328-.501 0-.91.111-1.227.334-.317.222-.476.549-.476.979zM98 42h4v1h-4v-1zm-1-7h1v8h-1v-8zm11 0h1v5h-1v-5zm5 0h1v5h-1v-5zm11 1h1v7h-1v-7zm10-1h1v8h-1v-8zm-13 0h7v1h-7v-1zm-36 8a4 4 0 1 0 0-8 4 4 0 0 0 0 8zm0-1a3 3 0 1 0 0-6 3 3 0 0 0 0 6zm61 1a4 4 0 1 0 0-8 4 4 0 0 0 0 8zm0-1a3 3 0 1 0 0-6 3 3 0 0 0 0 6z" fill="#747474"/></g></g></svg>