<?xml version="1.0" encoding="UTF-8" standalone="no"?>
<svg width="130" xmlns="http://www.w3.org/2000/svg" viewBox="0 0 130 36" height="36">
 <g fill-rule="evenodd">
  <path d="m12.013 15.174l0.388-0.709c-2.4023-0.412-4.8721-0.627-7.3919-0.627-0.9516 0-1.8961 0.03-2.8326 0.091l-0.0072 0.007 0.0527 0.023c3.377 0.004 6.6568 0.425 9.791 1.215z" fill="#D2D2D2"/>
  <path d="m42.871 35.684c-0.896-0.543-6.824-3.762-21.375-3.783-15.888 0.023-21.496 3.86-21.496 3.86l12.031-21.349c13.182 2.095 24.396 10.123 30.84 21.272zm-11.04-19.729l-8.34-14.8c0 0.0001-0.75-1.155-1.995-1.155-1.28 0.0089028-1.982 1.1335-1.982 1.1335l-6.291 11.164c0.367-0.01 0.736-0.015 1.105-0.015 6.226 0 12.147 1.311 17.503 3.672z" fill="#ED706F"/>
  <path d="m36.786 33.468c3.759 0.909 5.615 1.931 6.085 2.216-6.444-11.149-17.658-19.177-30.84-21.272l-0.378 0.671c10.625 2.527 19.622 9.277 25.133 18.385zm-16.883-32.789c0.332-0.3131 0.87-0.6737 1.593-0.67873 1.245 0 1.995 1.1551 1.995 1.1551l8.34 14.8c-1.127-0.497-2.278-0.947-3.453-1.349l-5.9-12.418c0-0.0001-0.781-1.4089-2.232-1.5108-0.118-0.00745-0.232-0.00651-0.343 0.00153z" fill="#C85B59"/>
  <path d="m79 16h7v2h-9v-1-13h1 8v2h-7v4h5v2h-5v4zm-7-6h-7v-6h-2v14h2v-6h7v6h2v-14h-2v6zm49 1h4v2c2.25-0.25 4-2.169 4-4.5 0-2.3305-1.75-4.2498-4-4.5v2s2.03 0.2214 2 2.5c-0.03 2.279-2 2.5-2 2.5v2h-4v5h-2v-14h1 5v2h-4v5zm-13 0h4v2c2.25-0.25 4-2.169 4-4.5 0-2.3305-1.75-4.2498-4-4.5v2s2.03 0.2214 2 2.5c-0.03 2.279-2 2.5-2 2.5v2h-4v5h-2v-14h1 5v2h-4v5zm-7.78 2l1.78 5h2l-5-14-2-0.0459 0.016 0.0459h-0.016l-5 14h2l1.786-5h4.434zm-0.712-2l-1.501-4.2183-1.507 4.2183h3.008zm-50.508-7h12v2h-12v-2zm5 2h2v12h-2v-12z" fill="#625F5E"/>
  <path d="m91 25v5h-1v-5h-2v-1h5v1h-2zm27.5 5h-0.5l-4-4.8v4.8h-1v-6h0.5 0.5l4 4.8v-4.8h1v6h-0.5zm-68.5-1.87l0.011-0.032h1.004c0.018 0.374 0.157 0.647 0.417 0.82s0.564 0.259 0.914 0.259c0.374 0 0.666-0.079 0.878-0.238 0.212-0.158 0.318-0.36 0.318-0.606 0-0.231-0.088-0.42-0.264-0.566s-0.51-0.275-1.002-0.385c-0.68-0.146-1.203-0.351-1.568-0.614-0.365-0.264-0.548-0.617-0.548-1.058 0-0.47 0.201-0.873 0.601-1.208 0.401-0.335 0.92-0.502 1.558-0.502 0.655 0 1.186 0.178 1.592 0.534 0.388 0.342 0.582 0.738 0.582 1.186v0.059l-0.01 0.032h-1.005c0-0.249-0.109-0.475-0.328-0.678s-0.496-0.305-0.831-0.305c-0.371 0-0.648 0.084-0.831 0.251-0.183 0.168-0.275 0.367-0.275 0.599 0 0.228 0.079 0.404 0.238 0.529 0.158 0.124 0.485 0.238 0.98 0.342 0.709 0.149 1.247 0.361 1.614 0.635 0.366 0.275 0.55 0.633 0.55 1.074 0 0.513-0.208 0.932-0.623 1.256s-0.957 0.486-1.626 0.486c-0.738 0-1.318-0.187-1.742-0.561-0.403-0.356-0.604-0.769-0.604-1.24v-0.069zm73 0l0.01-0.032h1.01c0.01 0.374 0.15 0.647 0.41 0.82s0.57 0.259 0.92 0.259c0.37 0 0.66-0.079 0.87-0.238 0.22-0.158 0.32-0.36 0.32-0.606 0-0.231-0.09-0.42-0.26-0.566-0.18-0.146-0.51-0.275-1-0.385-0.68-0.146-1.21-0.351-1.57-0.614-0.37-0.264-0.55-0.617-0.55-1.058 0-0.47 0.2-0.873 0.6-1.208s0.92-0.502 1.56-0.502c0.65 0 1.18 0.178 1.59 0.534 0.39 0.342 0.58 0.738 0.58 1.186v0.059l-0.01 0.032h-1c0-0.249-0.11-0.475-0.33-0.678s-0.5-0.305-0.83-0.305c-0.37 0-0.65 0.084-0.83 0.251-0.19 0.168-0.28 0.367-0.28 0.599 0 0.228 0.08 0.404 0.24 0.529 0.16 0.124 0.49 0.238 0.98 0.342 0.71 0.149 1.25 0.361 1.61 0.635 0.37 0.275 0.55 0.633 0.55 1.074 0 0.513-0.2 0.932-0.62 1.256-0.41 0.324-0.95 0.486-1.62 0.486-0.74 0-1.32-0.187-1.75-0.561-0.4-0.356-0.6-0.769-0.6-1.24v-0.069zm-51.967 0.87h3.005v1h-3.005v-1zm-1.002-5h1.002v6h-1.002v-6zm7.969 0h1.002v3.5h-1.002v-3.5zm4 0h1.002v3.5h-1.002v-3.5zm16 0h1v6h-1v-6zm-36 6c1.657 0 3-1.343 3-3s-1.343-3-3-3-3 1.343-3 3 1.343 3 3 3zm0-1c1.105 0 2-0.895 2-2s-0.895-2-2-2-2 0.895-2 2 0.895 2 2 2zm44 1c1.66 0 3-1.343 3-3s-1.34-3-3-3-3 1.343-3 3 1.34 3 3 3zm0-1c1.1 0 2-0.895 2-2s-0.9-2-2-2-2 0.895-2 2 0.9 2 2 2zm-23-1.5c0 1.381-1.119 2.5-2.5 2.5s-2.5-1.119-2.5-2.5h1c0 0.828 0.672 1.5 1.5 1.5s1.5-0.672 1.5-1.5h1z" fill="#F7706F"/>
 </g>
</svg>
