<?xml version="1.0" encoding="UTF-8" standalone="no"?>
<svg width="178px" height="49px" viewBox="0 0 178 49" version="1.1" xmlns="http://www.w3.org/2000/svg" xmlns:xlink="http://www.w3.org/1999/xlink">
    <!-- Generator: Sketch 41.2 (35397) - http://www.bohemiancoding.com/sketch -->
    <title>logo</title>
    <desc>Created with Sketch.</desc>
    <defs></defs>
    <g id="Page-1" stroke="none" stroke-width="1" fill="none" fill-rule="evenodd">
        <g id="calc" transform="translate(-61.000000, -40.000000)">
            <g id="logo" transform="translate(61.000000, 40.000000)">
                <g id="Group">
                    <path d="M16.4482025,20.7767534 L16.980239,19.8054355 C13.6904606,19.2411253 10.3087413,18.9471711 6.85859911,18.9471711 C5.5556167,18.9471711 4.26239327,18.9890971 2.98019562,19.0716778 L2.97030953,19.0819047 L3.04237635,19.1127948 C7.66637568,19.1187278 12.1570633,19.695537 16.4482025,20.7767534 L16.4482025,20.7767534 Z" id="Combined-Shape" fill="#D2D2D2"></path>
                    <path d="M58.6999465,48.8589762 C57.4734984,48.1164039 49.3559979,43.7084687 29.4336474,43.6795242 C7.67830951,43.7111318 0,48.9645911 0,48.9645911 L16.4729905,19.7338908 C34.521881,22.6018531 49.8765917,33.593643 58.6999465,48.8589762 L58.6999465,48.8589762 Z" id="Path" fill="#ED706F"></path>
                    <path d="M43.5845057,21.8458582 L32.1645353,1.58155143 C32.1645353,1.58155143 31.1377007,0 29.4336474,0 C27.6797653,0.0121899763 26.7193756,1.55206685 26.7193756,1.55206685 L18.1054429,16.8371656 C18.6083708,16.8245972 19.1128443,16.8182759 19.6187892,16.8182759 C28.1433071,16.8182759 36.2501223,18.6127835 43.5845057,21.8458582 L43.5845057,21.8458582 Z" id="Path" fill="#ED706F"></path>
                    <path d="M50.3684016,45.8248947 C55.5158539,47.0706745 58.0564442,48.4693576 58.6999465,48.8589762 L58.6999465,48.8589762 C49.8765917,33.593643 34.521881,22.6018531 16.4729905,19.7338908 L15.9558604,20.6515187 C30.5036943,24.112285 42.8220719,33.3538362 50.3684016,45.8248947 L50.3684016,45.8248947 Z" id="Combined-Shape" fill="#C85B59"></path>
                    <path d="M27.2519653,0.929342738 C27.706295,0.500625094 28.4435313,0.00688158676 29.4336474,0 C31.1377007,0 32.1645353,1.58155143 32.1645353,1.58155143 L43.5845057,21.8458582 C42.0415042,21.1656867 40.4643154,20.5491852 38.8562421,19.9996681 L30.7780739,2.99574735 C30.7780739,2.99574735 29.7087833,1.06672312 27.7209023,0.927242069 C27.559537,0.917046234 27.4031522,0.918328554 27.2519653,0.929342738 L27.2519653,0.929342738 Z" id="Combined-Shape" fill="#C85B59"></path>
                </g>
                <g id="Group-2" transform="translate(68.000000, 5.000000)">
                    <path d="M70.3333333,10 L64.6666667,10 L67.5,1.5 L70.3333333,10 Z M71,12 L64,12 L62,18 L60,18 L66,0 L67.5,0 L69,0 L75,18 L73,18 L71,12 Z M41,16 L51,16 L51,18 L39,18 L39,17 L39,0 L40,0 L51,0 L51,2 L41,2 L41,8 L49,8 L49,10 L41,10 L41,16 Z M32,8 L22,8 L22,0 L20,0 L20,18 L22,18 L22,10 L32,10 L32,18 L34,18 L34,0 L32,0 L32,8 Z M98,10 L104,10 L104,12 L98,12 L98,18 L96,18 L96,0 L97,0 L104,0 L104,2 L98,2 L98,10 Z M81,10 L87,10 L87,12 L81,12 L81,18 L79,18 L79,0 L80,0 L87,0 L87,2 L81,2 L81,10 Z M0,0 L16,0 L16,2 L0,2 L0,0 Z M87,0 C90.3137085,0 93,2.6862915 93,6 C93,9.3137085 90.3137085,12 87,12 L87,10 C89.209139,10 91,8.209139 91,6 C91,3.790861 89.209139,2 87,2 L87,0 Z M104,0 C107.313708,0 110,2.6862915 110,6 C110,9.3137085 107.313708,12 104,12 L104,10 C106.209139,10 108,8.209139 108,6 C108,3.790861 106.209139,2 104,2 L104,0 Z M7,2 L9,2 L9,18 L7,18 L7,2 Z" id="Combined-Shape" fill="#FFFFFF"></path>
                    <path d="M95.5,38 L95,38 L90,31.3333333 L90,38 L89,38 L89,30 L89.5,30 L90,30 L95,36.6666667 L95,30 L96,30 L96,38 L95.5,38 Z M46,35 C46,36.6568542 44.6568542,38 43,38 C41.3431458,38 40,36.6568542 40,35 L41,35 C41,36.1045695 41.8954305,37 43,37 C44.1045695,37 45,36.1045695 45,35 L46,35 Z M2.14346895,32.1725601 C2.14346895,32.4592188 2.23340381,32.6968402 2.41327623,32.8854314 C2.59314865,33.0740226 2.82440972,33.213578 3.10706638,33.3041018 C3.38972304,33.3946256 3.70449505,33.4738328 4.05139186,33.5417256 C4.39828867,33.6096184 4.74518028,33.6869397 5.09207709,33.7736917 C5.4389739,33.8604436 5.75374591,33.9717108 6.03640257,34.1074965 C6.31905923,34.2432821 6.5503203,34.4469576 6.73019272,34.718529 C6.91006514,34.9901004 7,35.3257877 7,35.7256011 C7,36.3366367 6.73447803,36.868456 6.20342612,37.321075 C5.67237422,37.7736939 4.95503664,38 4.05139186,38 C3.14774709,38 2.41327906,37.8170693 1.84796574,37.4512023 C1.28265242,37.0853353 1,36.5893478 1,35.9632249 L2.24625268,35.9632249 C2.28051409,36.3177764 2.44111206,36.6044308 2.72805139,36.8231966 C3.01499073,37.0419624 3.44111066,37.1513437 4.00642398,37.1513437 C4.5717373,37.1513437 5.02141161,37.0231036 5.35546039,36.7666195 C5.68950916,36.5101354 5.85653105,36.2102799 5.85653105,35.8670438 C5.85653105,35.5238078 5.76659619,35.259784 5.58672377,35.0749646 C5.40685135,34.8901452 5.17559028,34.7524757 4.89293362,34.6619519 C4.61027696,34.5714281 4.29550495,34.4941069 3.94860814,34.4299859 C3.60171133,34.3658648 3.25481972,34.2885436 2.90792291,34.1980198 C2.5610261,34.107496 2.24625409,33.9924571 1.96359743,33.8528996 C1.68094077,33.7133421 1.4496797,33.5058948 1.26980728,33.2305516 C1.08993486,32.9552084 1,32.6138634 1,32.2065064 C1,31.5426652 1.26766328,31.0089601 1.80299786,30.6053748 C2.33833244,30.2017896 3.03639827,30 3.89721627,30 C4.75803428,30 5.44325227,30.1753872 5.95289079,30.5261669 C6.46252931,30.8769466 6.75588827,31.3616188 6.83297645,31.980198 L5.53533191,31.980198 C5.50107049,31.6709084 5.33618991,31.4068846 5.04068522,31.1881188 C4.74518054,30.969353 4.34689758,30.8599717 3.84582441,30.8599717 C3.34475124,30.8599717 2.93576176,30.9712389 2.61884368,31.1937765 C2.30192561,31.4163142 2.14346895,31.7425721 2.14346895,32.1725601 Z M104.143469,32.1725601 C104.143469,32.4592188 104.233404,32.6968402 104.413276,32.8854314 C104.593149,33.0740226 104.82441,33.213578 105.107066,33.3041018 C105.389723,33.3946256 105.704495,33.4738328 106.051392,33.5417256 C106.398289,33.6096184 106.74518,33.6869397 107.092077,33.7736917 C107.438974,33.8604436 107.753746,33.9717108 108.036403,34.1074965 C108.319059,34.2432821 108.55032,34.4469576 108.730193,34.718529 C108.910065,34.9901004 109,35.3257877 109,35.7256011 C109,36.3366367 108.734478,36.868456 108.203426,37.321075 C107.672374,37.7736939 106.955037,38 106.051392,38 C105.147747,38 104.413279,37.8170693 103.847966,37.4512023 C103.282652,37.0853353 103,36.5893478 103,35.9632249 L104.246253,35.9632249 C104.280514,36.3177764 104.441112,36.6044308 104.728051,36.8231966 C105.014991,37.0419624 105.441111,37.1513437 106.006424,37.1513437 C106.571737,37.1513437 107.021412,37.0231036 107.35546,36.7666195 C107.689509,36.5101354 107.856531,36.2102799 107.856531,35.8670438 C107.856531,35.5238078 107.766596,35.259784 107.586724,35.0749646 C107.406851,34.8901452 107.17559,34.7524757 106.892934,34.6619519 C106.610277,34.5714281 106.295505,34.4941069 105.948608,34.4299859 C105.601711,34.3658648 105.25482,34.2885436 104.907923,34.1980198 C104.561026,34.107496 104.246254,33.9924571 103.963597,33.8528996 C103.680941,33.7133421 103.44968,33.5058948 103.269807,33.2305516 C103.089935,32.9552084 103,32.6138634 103,32.2065064 C103,31.5426652 103.267663,31.0089601 103.802998,30.6053748 C104.338332,30.2017896 105.036398,30 105.897216,30 C106.758034,30 107.443252,30.1753872 107.952891,30.5261669 C108.462529,30.8769466 108.755888,31.3616188 108.832976,31.980198 L107.535332,31.980198 C107.50107,31.6709084 107.33619,31.4068846 107.040685,31.1881188 C106.745181,30.969353 106.346898,30.8599717 105.845824,30.8599717 C105.344751,30.8599717 104.935762,30.9712389 104.618844,31.1937765 C104.301926,31.4163142 104.143469,31.7425721 104.143469,32.1725601 Z M30,37 L34,37 L34,38 L30,38 L30,37 Z M29,30 L30,30 L30,38 L29,38 L29,30 Z M40,30 L41,30 L41,35 L40,35 L40,30 Z M45,30 L46,30 L46,35 L45,35 L45,30 Z M56,31 L57,31 L57,38 L56,38 L56,31 Z M66,30 L67,30 L67,38 L66,38 L66,30 Z M53,30 L60,30 L60,31 L53,31 L53,30 Z M17,38 C19.209139,38 21,36.209139 21,34 C21,31.790861 19.209139,30 17,30 C14.790861,30 13,31.790861 13,34 C13,36.209139 14.790861,38 17,38 Z M17,37 C18.6568542,37 20,35.6568542 20,34 C20,32.3431458 18.6568542,31 17,31 C15.3431458,31 14,32.3431458 14,34 C14,35.6568542 15.3431458,37 17,37 Z M78,38 C80.209139,38 82,36.209139 82,34 C82,31.790861 80.209139,30 78,30 C75.790861,30 74,31.790861 74,34 C74,36.209139 75.790861,38 78,38 Z M78,37 C79.6568542,37 81,35.6568542 81,34 C81,32.3431458 79.6568542,31 78,31 C76.3431458,31 75,32.3431458 75,34 C75,35.6568542 76.3431458,37 78,37 Z" id="Combined-Shape" fill="#747474"></path>
                </g>
            </g>
        </g>
    </g>
</svg>