<?xml version="1.0" encoding="UTF-8" standalone="no"?>
<svg width="180" xmlns="http://www.w3.org/2000/svg" viewBox="0 0 180 50" height="50">
 <g fill-rule="evenodd">
  <path fill-opacity=".2" d="m16.451 20.772l-0.003 0.005c-4.291-1.081-8.7816-1.658-13.406-1.664l-0.0717-0.031 0.0099-0.01c1.2822-0.083 2.5754-0.125 3.8784-0.125 3.4504 0 6.8314 0.294 10.121 0.858l-0.005 0.011c17.831 2.99 32.983 13.919 41.725 29.043-0.644-0.39-3.184-1.788-8.332-3.034-7.46-12.329-19.585-21.502-33.917-25.053zm12.983-20.772c1.704 0 2.731 1.5816 2.731 1.5816l11.42 20.264c-1.543-0.68-3.121-1.297-4.729-1.846l-8.078-17.004c0-0.0003-1.069-1.9293-3.057-2.0688-0.161-0.01015-0.318-0.00887-0.469 0.00214 0.454-0.42871 1.192-0.92246 2.182-0.92934z"/>
  <path d="m50.368 45.825c-4.663-1.129-11.465-2.132-20.934-2.145-21.756 0.031-29.434 5.285-29.434 5.285l15.956-28.313c14.548 3.46 26.866 12.702 34.412 25.173zm-32.263-28.988c0.503-0.012 1.008-0.019 1.514-0.019 6.731 0 13.202 1.119 19.237 3.182l-8.078-17.004c0-0.0003-1.069-1.9293-3.057-2.0688-0.066-0.00414-0.474 0.00004-0.474 0.00004l-9.142 15.91zm120.22-0.837h-5.66l2.83-8.5 2.83 8.5zm0.67 2h-7l-2 6h-2l6-18h1.5 1.5l6 18h-2l-2-6zm-30 4h10v2h-12v-1-17h1 11v2h-10v6h8v2h-8v6zm-9-8h-10v-8h-2v18h2v-8h10v8h2v-18h-2v8zm66 2h6v2h-6v6h-2v-18h1 7v2h-6v8zm-17 0h6v2h-6v6h-2v-18h1 7v2h-6v8zm-81-10h16v2h-16v-2zm87 0c3.31 0 6 2.6863 6 6 0 3.314-2.69 6-6 6v-2c2.21 0 4-1.791 4-4 0-2.2091-1.79-4-4-4v-2zm17 0c3.31 0 6 2.6863 6 6 0 3.314-2.69 6-6 6v-2c2.21 0 4-1.791 4-4 0-2.2091-1.79-4-4-4v-2zm-97 2h2v16h-2v-16z" fill="#fff"/>
  <path fill-opacity=".4" d="m163.5 42h-0.5l-5-6.667v6.667h-1v-8h0.5 0.5l5 6.667v-6.667h1v8h-0.5zm-49.5-3c0 1.657-1.34 3-3 3s-3-1.343-3-3h1c0 1.105 0.9 2 2 2s2-0.895 2-2h1zm-43.857-2.827c0 0.286 0.09 0.524 0.27 0.712 0.18 0.189 0.411 0.329 0.694 0.419 0.283 0.091 0.597 0.17 0.944 0.238s0.694 0.145 1.041 0.232c0.347 0.086 0.662 0.198 0.944 0.333 0.283 0.136 0.514 0.34 0.694 0.612 0.18 0.271 0.27 0.607 0.27 1.007 0 0.611-0.266 1.142-0.797 1.595s-1.248 0.679-2.152 0.679c-0.903 0-1.638-0.183-2.203-0.549s-0.848-0.862-0.848-1.488h1.246c0.035 0.355 0.195 0.641 0.482 0.86s0.713 0.328 1.278 0.328c0.566 0 1.015-0.128 1.349-0.384 0.335-0.257 0.502-0.557 0.502-0.9s-0.09-0.607-0.27-0.792-0.411-0.323-0.694-0.413c-0.283-0.091-0.597-0.168-0.944-0.232s-0.694-0.141-1.041-0.232-0.662-0.206-0.944-0.345c-0.283-0.14-0.514-0.347-0.694-0.622-0.18-0.276-0.27-0.617-0.27-1.024 0-0.664 0.268-1.198 0.803-1.602 0.535-0.403 1.233-0.605 2.094-0.605s1.546 0.175 2.056 0.526 0.803 0.836 0.88 1.454h-1.298c-0.034-0.309-0.199-0.573-0.494-0.792-0.296-0.219-0.694-0.328-1.195-0.328s-0.91 0.111-1.227 0.334c-0.317 0.222-0.476 0.549-0.476 0.979zm102 0c0 0.286 0.09 0.524 0.27 0.712 0.18 0.189 0.41 0.329 0.7 0.419 0.28 0.091 0.59 0.17 0.94 0.238s0.7 0.145 1.04 0.232c0.35 0.086 0.66 0.198 0.95 0.333 0.28 0.136 0.51 0.34 0.69 0.612 0.18 0.271 0.27 0.607 0.27 1.007 0 0.611-0.27 1.142-0.8 1.595s-1.24 0.679-2.15 0.679c-0.9 0-1.64-0.183-2.2-0.549-0.57-0.366-0.85-0.862-0.85-1.488h1.25c0.03 0.355 0.19 0.641 0.48 0.86 0.28 0.219 0.71 0.328 1.28 0.328 0.56 0 1.01-0.128 1.35-0.384 0.33-0.257 0.5-0.557 0.5-0.9s-0.09-0.607-0.27-0.792-0.41-0.323-0.7-0.413c-0.28-0.091-0.59-0.168-0.94-0.232s-0.7-0.141-1.04-0.232c-0.35-0.091-0.66-0.206-0.95-0.345-0.28-0.14-0.51-0.347-0.69-0.622-0.18-0.276-0.27-0.617-0.27-1.024 0-0.664 0.27-1.198 0.8-1.602 0.54-0.403 1.24-0.605 2.1-0.605s1.54 0.175 2.05 0.526 0.81 0.836 0.88 1.454h-1.29c-0.04-0.309-0.2-0.573-0.5-0.792-0.29-0.219-0.69-0.328-1.19-0.328-0.51 0-0.91 0.111-1.23 0.334-0.32 0.222-0.48 0.549-0.48 0.979zm-74.14 4.827h4v1h-4v-1zm-1-7h1v8h-1v-8zm11 0h1v5h-1v-5zm5 0h1v5h-1v-5zm11 1h1v7h-1v-7zm10-1h1v8h-1v-8zm-13 0h7v1h-7v-1zm-36 8c2.209 0 4-1.791 4-4s-1.791-4-4-4-4 1.791-4 4 1.791 4 4 4zm0-1c1.657 0 3-1.343 3-3s-1.343-3-3-3-3 1.343-3 3 1.343 3 3 3zm61 1c2.21 0 4-1.791 4-4s-1.79-4-4-4-4 1.791-4 4 1.79 4 4 4zm0-1c1.66 0 3-1.343 3-3s-1.34-3-3-3-3 1.343-3 3 1.34 3 3 3z"/>
 </g>
</svg>
